<svg width="104" height="32" viewBox="0 0 104 32" fill="none" xmlns="http://www.w3.org/2000/svg">
<g clip-path="url(#clip0_346_253)">
<path d="M48.8441 21.3013C48.8441 21.5573 49.057 21.7707 49.3125 21.7707H69.8017C70.0571 21.7707 70.27 21.984 70.27 22.24V28.064C70.27 28.32 70.0571 28.5333 69.8017 28.5333H40.6059C40.3504 28.5333 40.1375 28.32 40.1375 28.064V18.176C40.1375 17.92 40.3504 17.7067 40.6059 17.7067H48.3758C48.6313 17.7067 48.8441 17.92 48.8441 18.176V21.3013Z" fill="black"/>
<path d="M69.5036 3.09326H61.7337C61.4751 3.09326 61.2654 3.30339 61.2654 3.56259V20.0959C61.2654 20.3551 61.4751 20.5653 61.7337 20.5653H69.5036C69.7623 20.5653 69.972 20.3551 69.972 20.0959V3.56259C69.972 3.30339 69.7623 3.09326 69.5036 3.09326Z" fill="black"/>
<path d="M87.2787 16.3307C73.6228 16.3307 72.6648 17.2374 72.6648 22.6134C72.6648 27.9894 73.6228 28.896 87.2787 28.896C100.935 28.896 101.893 27.9894 101.893 22.6134C101.893 17.2374 100.935 16.3307 87.2787 16.3307ZM87.2787 23.488C81.4885 23.488 81.3714 23.3387 81.3714 22.6134C81.3714 21.888 81.4885 21.7387 87.2787 21.7387C93.0689 21.7387 93.186 21.888 93.186 22.6134C93.186 23.3387 93.0689 23.488 87.2787 23.488Z" fill="black"/>
<path d="M49.8872 3.36V7.41334C49.8872 7.50934 49.8021 7.60534 49.6743 7.64801L43.9267 9.632C43.6713 9.71734 43.3839 9.58934 43.3839 9.39734V5.57867C43.3839 5.42934 43.2987 5.28 43.1391 5.17334L40.7762 3.54134C40.542 3.38134 40.1375 3.49867 40.1375 3.72267V16.2667C40.1375 16.4053 40.3078 16.5227 40.5101 16.5227H52.7397C52.9633 16.5227 53.1655 16.4587 53.3251 16.352L59.5304 12.1173C59.6049 12.064 59.6369 12 59.6369 11.936V3.36C59.6369 3.22134 59.4666 3.104 59.2643 3.104H50.2597C50.0469 3.104 49.8872 3.22134 49.8872 3.36ZM43.3839 14.56V12.224C43.3839 12.128 43.469 12.032 43.5968 11.9893L49.3444 10.0053C49.5998 9.92001 49.8872 10.048 49.8872 10.24V11.9253C49.8872 12.0107 49.8233 12.096 49.7169 12.1387L43.9693 14.7733C43.7138 14.8907 43.3839 14.7733 43.3839 14.56Z" fill="black"/>
<path d="M103.532 7.03993C103.787 7.03993 104 7.25326 104 7.50926V12.8853C104 13.1413 103.787 13.3546 103.532 13.3546H102.244C101.988 13.3546 101.775 13.5679 101.775 13.8239V14.8373C101.775 15.0933 101.563 15.3066 101.307 15.3066H93.5372C93.2817 15.3066 93.0689 15.0933 93.0689 14.8373V3.56259C93.0689 3.30659 93.2817 3.09326 93.5372 3.09326H101.307C101.563 3.09326 101.775 3.30659 101.775 3.56259V6.55993C101.775 6.81593 101.988 7.02926 102.244 7.02926H103.532V7.03993Z" fill="black"/>
<path d="M91.7065 8.36264C91.9619 8.36264 92.1748 8.14931 92.1748 7.89331V3.56264C92.1748 3.30664 91.9619 3.09331 91.7065 3.09331H83.4043C83.1489 3.09331 82.936 3.30664 82.936 3.56264V9.56798C82.936 9.82398 82.7231 10.0373 82.4677 10.0373H79.7429C79.4874 10.0373 79.2746 9.82398 79.2746 9.56798V8.82131C79.2746 8.56531 79.4874 8.35198 79.7429 8.35198H81.7226C81.9781 8.35198 82.191 8.13864 82.191 7.88264V7.61598C82.191 7.35998 82.0207 7.02931 81.8078 6.87998L76.4327 3.21064C76.305 3.12531 76.156 3.08264 76.0069 3.08264H73.1544C72.899 3.08264 72.6861 3.29597 72.6861 3.55197V14.8266C72.6861 15.0826 72.899 15.296 73.1544 15.296H85.2776C85.416 15.296 85.5544 15.2533 85.6715 15.1893L91.8023 11.4773C92.0258 11.3386 92.2067 11.0186 92.2067 10.7626V10.496C92.2067 10.24 91.9938 10.0266 91.7384 10.0266H90.0354C89.7799 10.0266 89.5671 9.81331 89.5671 9.55731V8.81064C89.5671 8.55464 89.7799 8.34131 90.0354 8.34131H91.7384L91.7065 8.36264Z" fill="black"/>
<path d="M25.8749 0H6.05629C2.71149 0 0 2.71733 0 6.06933V25.9307C0 29.2827 2.71149 32 6.05629 32H25.8749C29.2197 32 31.9312 29.2827 31.9312 25.9307V6.06933C31.9312 2.71733 29.2197 0 25.8749 0Z" fill="#00FFA4"/>
<path d="M15.9656 5.67467V12.1707C15.9656 12.3307 15.8805 12.4693 15.7315 12.544L9.40908 15.712C9.13234 15.8507 8.81303 15.648 8.81303 15.3387V9.22667C8.81303 8.98133 8.71723 8.74667 8.54694 8.576L5.94986 5.97333C5.68377 5.70667 5.24738 5.89867 5.24738 6.272V26.3467C5.24738 26.5707 5.42832 26.7627 5.66248 26.7627H19.1055C19.3503 26.7627 19.5738 26.6667 19.7441 26.496L26.5668 19.7227C26.6413 19.648 26.6945 19.5413 26.6945 19.424V5.67467C26.6945 5.45067 26.5136 5.25867 26.2794 5.25867H16.3807C16.1572 5.25867 15.9656 5.44 15.9656 5.67467ZM8.81303 23.584V19.84C8.81303 19.68 8.89818 19.5413 9.04719 19.4667L15.3696 16.2987C15.6463 16.16 15.9656 16.3627 15.9656 16.672V19.36C15.9656 19.4987 15.8911 19.6267 15.7847 19.7013L9.4623 23.9253C9.18556 24.1067 8.81303 23.9147 8.81303 23.584Z" fill="black"/>
</g>
<defs>
<clipPath id="clip0_346_253">
<rect width="104" height="32" fill="white"/>
</clipPath>
</defs>
</svg>
