<svg width="182" height="128" viewBox="0 0 182 128" fill="none" xmlns="http://www.w3.org/2000/svg">
<rect x="49" y="21" width="30" height="14" fill="#009C64"/>
<path fill-rule="evenodd" clip-rule="evenodd" d="M42.2223 24.4427V24.0017C42.2223 19.338 46.003 15.5573 50.6668 15.5573H77.3334C81.9972 15.5573 85.7779 19.338 85.7779 24.0017V24.4427H90.6665C94.0849 24.4427 97.3632 25.8006 99.7804 28.2177C102.198 30.6349 103.555 33.9132 103.555 37.3316V99.5538C103.555 102.972 102.198 106.25 99.7804 108.668C97.3632 111.085 94.0849 112.443 90.6665 112.443H37.3332C33.9149 112.443 30.6365 111.085 28.2194 108.668C25.8023 106.25 24.4443 102.972 24.4443 99.5538V37.3316C24.4443 33.9132 25.8023 30.6349 28.2194 28.2177C30.6365 25.8006 33.9149 24.4427 37.3332 24.4427H42.2223ZM50.2223 24.0017C50.2223 23.7562 50.4213 23.5573 50.6668 23.5573H77.3334C77.5789 23.5573 77.7779 23.7562 77.7779 24.0017V28.4007C77.7777 28.4147 77.7777 28.4287 77.7777 28.4427C77.7777 28.4567 77.7777 28.4707 77.7779 28.4846V32.8906C77.7779 33.136 77.5789 33.335 77.3334 33.335H50.6668C50.4213 33.335 50.2223 33.136 50.2223 32.8906V24.0017ZM85.7779 32.4427V32.8906C85.7779 37.5543 81.9972 41.335 77.3334 41.335H50.6668C46.003 41.335 42.2223 37.5543 42.2223 32.8906V32.4427H37.3332C36.0366 32.4427 34.7931 32.9577 33.8763 33.8746C32.9594 34.7914 32.4443 36.0349 32.4443 37.3316V99.5538C32.4443 100.85 32.9594 102.094 33.8763 103.011C34.7931 103.928 36.0366 104.443 37.3332 104.443H90.6665C91.9632 104.443 93.2067 103.928 94.1235 103.011C95.0404 102.094 95.5554 100.85 95.5554 99.5538V37.3316C95.5554 36.0349 95.0404 34.7914 94.1235 33.8746C93.2067 32.9577 91.9632 32.4427 90.6665 32.4427H85.7779Z" fill="#121212"/>
<path fill-rule="evenodd" clip-rule="evenodd" d="M131.256 75.562C128.127 71.7292 126.25 66.8338 126.25 61.5C126.25 49.2117 136.212 39.25 148.5 39.25C160.788 39.25 170.75 49.2117 170.75 61.5C170.75 73.7883 160.788 83.75 148.5 83.75C143.166 83.75 138.271 81.8732 134.438 78.744L125.091 88.091C124.212 88.9697 122.788 88.9697 121.909 88.091C121.03 87.2123 121.03 85.7877 121.909 84.909L131.256 75.562ZM148.5 43.75C158.303 43.75 166.25 51.6969 166.25 61.5C166.25 71.3031 158.303 79.25 148.5 79.25C143.711 79.25 139.365 77.3533 136.172 74.27C136.109 74.1878 136.041 74.1089 135.966 74.034C135.891 73.9591 135.812 73.8905 135.73 73.8284C132.647 70.6354 130.75 66.2892 130.75 61.5C130.75 51.6969 138.697 43.75 148.5 43.75Z" fill="#121212" stroke="#121212" stroke-width="2" stroke-linecap="round" stroke-linejoin="round"/>
</svg>
