<svg width="54" height="54" viewBox="0 0 54 54" fill="none" xmlns="http://www.w3.org/2000/svg">
<path d="M6.82843 1.17157C5.26633 -0.390524 2.73367 -0.390524 1.17157 1.17157C-0.390524 2.73367 -0.390524 5.26633 1.17157 6.82843L4 4L6.82843 1.17157ZM49.2548 53.2548C51.464 53.2548 53.2548 51.464 53.2548 49.2548L53.2548 13.2548C53.2548 11.0457 51.464 9.25483 49.2548 9.25483C47.0457 9.25483 45.2548 11.0457 45.2548 13.2548L45.2548 45.2548L13.2548 45.2548C11.0457 45.2548 9.25483 47.0457 9.25483 49.2548C9.25483 51.464 11.0457 53.2548 13.2548 53.2548L49.2548 53.2548ZM4 4L1.17157 6.82843L46.4264 52.0833L49.2548 49.2548L52.0833 46.4264L6.82843 1.17157L4 4Z" fill="#00FFA4"/>
</svg>
