<svg width="66" height="64" viewBox="0 0 66 64" fill="none" xmlns="http://www.w3.org/2000/svg">
<path fill-rule="evenodd" clip-rule="evenodd" d="M40.8084 16C28.6128 15.9882 18.7565 25.2597 18.0389 37.4474C17.276 50.4034 27.844 61.588 40.8084 61.5757C44.5045 61.5722 47.3171 60.8863 50.1641 59.5628L63.1303 63.888C63.9137 64.1493 64.7774 63.9453 65.3614 63.3609C65.9453 62.7765 66.1492 61.9122 65.8881 61.1282L61.566 48.1526C62.8886 45.304 63.5758 42.489 63.5775 38.7888C63.5795 34.2209 62.5431 30.1491 60.3946 26.6751C58.2463 23.2016 55.0667 20.456 50.9876 18.4126C47.3817 16.6063 44.841 16.0039 40.8084 16ZM22.3918 37.7041C22.9733 27.8285 30.9145 20.3541 40.8042 20.3636C44.1603 20.3669 46.0344 20.8112 49.0358 22.3147C52.516 24.0581 55.0312 26.2947 56.6868 28.9716C58.3421 31.6481 59.2188 34.895 59.217 38.7869C59.2155 42.1218 58.5683 44.4459 57.271 47.0163C57.0089 47.5355 56.9649 48.138 57.1487 48.6899L60.3725 58.3684L50.7011 55.1422C50.1496 54.9583 49.5476 55.0023 49.0287 55.2646C46.4609 56.5625 44.1382 57.2089 40.8042 57.2121C30.346 57.222 21.7768 48.1473 22.3918 37.7041Z" fill="#333333"/>
<path d="M25.1916 1.11294e-05C36.1995 -0.0105821 45.3001 7.54214 47.4963 17.9756C45.9788 17.5072 44.3913 17.1985 42.7532 17.0693C40.3728 9.58211 33.4661 4.3553 25.1955 4.36329C21.8395 4.36655 19.9654 4.81102 16.9641 6.31446C13.4838 8.05784 10.9683 10.2948 9.31274 12.9717C7.6575 15.6481 6.7807 18.8954 6.78246 22.7871C6.784 26.1219 7.43141 28.4463 8.72875 31.0166C8.99072 31.5357 9.03451 32.1377 8.85082 32.6895L5.62719 42.3682L15.2991 39.1426C15.8504 38.9587 16.4521 39.0025 16.9709 39.2647C17.6668 39.6164 18.3456 39.9186 19.0305 40.1748C19.1176 41.8298 19.3875 43.4364 19.8205 44.9746C18.4408 44.6402 17.1419 44.1695 15.8362 43.5625L2.86938 47.8877C2.08616 48.1489 1.2228 47.9454 0.638909 47.3613C0.0549756 46.777 -0.149578 45.9119 0.111565 45.1279L4.43383 32.1524C3.11134 29.3039 2.42381 26.489 2.42211 22.7891C2.42004 18.2211 3.45714 14.1488 5.60571 10.6748C7.75391 7.20159 10.9332 4.45639 15.012 2.4131C18.6178 0.606821 21.1591 0.00390739 25.1916 1.11294e-05Z" fill="#333333"/>
</svg>
