<svg width="66" height="64" viewBox="0 0 66 64" fill="none" xmlns="http://www.w3.org/2000/svg">
<path fill-rule="evenodd" clip-rule="evenodd" d="M25.1916 1.12192e-05C37.3872 -0.0117722 47.2435 9.25971 47.9611 21.4474C48.724 34.4034 38.156 45.588 25.1917 45.5757C21.4955 45.5722 18.6829 44.8863 15.8359 43.5628L2.86973 47.888C2.0863 48.1493 1.22256 47.9453 0.638631 47.3609C0.0546974 46.7765 -0.149202 45.9122 0.111941 45.1282L4.43398 32.1526C3.11139 29.304 2.4242 26.489 2.42253 22.7888C2.42046 18.2209 3.45688 14.1491 5.60545 10.6751C7.75375 7.20156 10.9333 4.456 15.0124 2.41261C18.6183 0.606332 21.159 0.00390748 25.1916 1.12192e-05ZM43.6082 21.7041C43.0267 11.8285 35.0855 4.35408 25.1958 4.36364C21.8397 4.36688 19.9656 4.81119 16.9642 6.31467C13.484 8.05805 10.9688 10.2947 9.31318 12.9716C7.65786 15.6481 6.7812 18.895 6.78297 22.7869C6.78448 26.1218 7.43166 28.4459 8.72903 31.0163C8.99111 31.5355 9.03513 32.138 8.85131 32.6899L5.62751 42.3684L15.2989 39.1422C15.8504 38.9583 16.4524 39.0023 16.9713 39.2646C19.5391 40.5625 21.8618 41.2089 25.1958 41.2121C35.654 41.222 44.2232 32.1473 43.6082 21.7041Z" fill="#333333"/>
<path d="M41 19C52.0457 19 61 27.9543 61 39C61 43.038 59.8022 46.7958 57.7441 49.9395L61.5 59.5L51.4707 56.041C48.4249 57.9165 44.8393 59 41 59C29.9543 59 21 50.0457 21 39C21 27.9543 29.9543 19 41 19Z" fill="#00FFA4"/>
<path fill-rule="evenodd" clip-rule="evenodd" d="M40.8084 16C28.6128 15.9882 18.7565 25.2597 18.0389 37.4474C17.276 50.4034 27.844 61.588 40.8083 61.5757C44.5045 61.5722 47.3171 60.8863 50.1641 59.5628L63.1303 63.888C63.9137 64.1493 64.7774 63.9453 65.3614 63.3609C65.9453 62.7765 66.1492 61.9122 65.8881 61.1282L61.566 48.1526C62.8886 45.304 63.5758 42.489 63.5775 38.7888C63.5795 34.2209 62.5431 30.1491 60.3946 26.6751C58.2463 23.2016 55.0667 20.456 50.9876 18.4126C47.3817 16.6063 44.841 16.0039 40.8084 16ZM22.3918 37.7041C22.9733 27.8285 30.9145 20.3541 40.8042 20.3636C44.1603 20.3669 46.0344 20.8112 49.0358 22.3147C52.516 24.0581 55.0312 26.2947 56.6868 28.9716C58.3421 31.6481 59.2188 34.895 59.217 38.7869C59.2155 42.1218 58.5683 44.4459 57.271 47.0163C57.0089 47.5355 56.9649 48.138 57.1487 48.6899L60.3725 58.3684L50.7011 55.1422C50.1496 54.9583 49.5476 55.0023 49.0287 55.2646C46.4609 56.5625 44.1382 57.2089 40.8042 57.2121C30.346 57.222 21.7768 48.1473 22.3918 37.7041Z" fill="#333333"/>
</svg>
