<svg width="119" height="78" viewBox="0 0 119 78" fill="none" xmlns="http://www.w3.org/2000/svg">
<path fill-rule="evenodd" clip-rule="evenodd" d="M14.3822 7.15342V6.79841C14.3822 3.04375 17.4407 0 21.2137 0H42.7867C46.5596 0 49.6181 3.04375 49.6181 6.79841V7.15342H53.573C56.3384 7.15342 58.9906 8.24666 60.946 10.1926C62.9014 12.1386 64 14.7779 64 17.5299V67.6235C64 70.3755 62.9014 73.0148 60.946 74.9608C58.9906 76.9068 56.3384 78 53.573 78H10.427C7.66156 78 5.00942 76.9068 3.05399 74.9608C1.09855 73.0148 0 70.3755 0 67.6235V17.5299C0 14.7779 1.09855 12.1386 3.05399 10.1926C5.00942 8.24666 7.66156 7.15342 10.427 7.15342H14.3822ZM20.8541 6.79841C20.8541 6.60079 21.0151 6.4406 21.2137 6.4406H42.7867C42.9853 6.4406 43.1462 6.60079 43.1462 6.79841V10.3399C43.1461 10.3512 43.1461 10.3624 43.1461 10.3737C43.1461 10.385 43.1461 10.3963 43.1462 10.4075V13.9546C43.1462 14.1522 42.9853 14.3124 42.7867 14.3124H21.2137C21.0151 14.3124 20.8541 14.1522 20.8541 13.9546V6.79841ZM49.6181 13.594V13.9546C49.6181 17.7093 46.5596 20.753 42.7867 20.753H21.2137C17.4407 20.753 14.3822 17.7093 14.3822 13.9546V13.594H10.427C9.37802 13.594 8.37204 14.0087 7.63032 14.7468C6.8886 15.485 6.47191 16.4861 6.47191 17.5299V67.6235C6.47191 68.6674 6.8886 69.6685 7.63032 70.4066C8.37204 71.1447 9.37802 71.5594 10.427 71.5594H53.573C54.622 71.5594 55.628 71.1447 56.3697 70.4066C57.1114 69.6685 57.5281 68.6674 57.5281 67.6235V17.5299C57.5281 16.4861 57.1114 15.485 56.3697 14.7468C55.628 14.0087 54.622 13.594 53.573 13.594H49.6181Z" fill="#00FFA4"/>
<path fill-rule="evenodd" clip-rule="evenodd" d="M93.956 9.29024C93.2194 7.56992 90.7806 7.56992 90.044 9.29024L85.9559 18.8375C85.7407 19.3402 85.3402 19.7407 84.8375 19.9559L75.2902 24.044C73.5699 24.7806 73.5699 27.2194 75.2902 27.956L84.8375 32.044C85.3402 32.2593 85.7407 32.6598 85.9559 33.1625L90.044 42.7098C90.7806 44.4301 93.2194 44.4301 93.956 42.7098L98.044 33.1625C98.2593 32.6598 98.6598 32.2593 99.1625 32.044L108.71 27.956C110.43 27.2194 110.43 24.7806 108.71 24.044L99.1625 19.9559C98.6598 19.7407 98.2593 19.3402 98.044 18.8375L93.956 9.29024ZM92 12.8306L88.89 20.0938C88.3518 21.3505 87.3505 22.3518 86.0938 22.89L78.8306 26L86.0938 29.11C87.3505 29.6481 88.3518 30.6495 88.89 31.9062L92 39.1694L95.11 31.9062C95.6481 30.6495 96.6495 29.6481 97.9062 29.11L105.169 26L97.9062 22.89C96.6495 22.3518 95.6481 21.3505 95.11 20.0938L92 12.8306Z" fill="#00FFA4"/>
<path fill-rule="evenodd" clip-rule="evenodd" d="M106.521 43.0035C105.948 41.6655 104.052 41.6655 103.479 43.0035L100.299 50.4292C100.132 50.8201 99.8201 51.1317 99.4292 51.2991L92.0035 54.4787C90.6655 55.0516 90.6655 56.9484 92.0035 57.5213L99.4292 60.7009C99.8201 60.8683 100.132 61.1799 100.299 61.5708L103.479 68.9965C104.052 70.3345 105.948 70.3345 106.521 68.9965L109.701 61.5708C109.868 61.1799 110.18 60.8683 110.571 60.7009L117.996 57.5213C119.335 56.9484 119.335 55.0516 117.996 54.4787L110.571 51.2991C110.18 51.1317 109.868 50.8201 109.701 50.4292L106.521 43.0035ZM105 45.7571L102.581 51.4063C102.163 52.3837 101.384 53.1625 100.406 53.5811L94.7571 56L100.406 58.4189C101.384 58.8375 102.163 59.6162 102.581 60.5937L105 66.2429L107.419 60.5937C107.837 59.6162 108.616 58.8375 109.594 58.4189L115.243 56L109.594 53.5811C108.616 53.1625 107.837 52.3837 107.419 51.4063L105 45.7571Z" fill="#00FFA4"/>
<path d="M16 34H48" stroke="#00FFA4" stroke-width="4" stroke-linecap="round"/>
<path d="M16 46H28" stroke="#00FFA4" stroke-width="4" stroke-linecap="round"/>
<path d="M16 58H40" stroke="#00FFA4" stroke-width="4" stroke-linecap="round"/>
</svg>
