<svg width="24" height="24" viewBox="0 0 24 24" fill="none" xmlns="http://www.w3.org/2000/svg">
<path fill-rule="evenodd" clip-rule="evenodd" d="M3.66699 3.75C3.25278 3.75 2.91699 4.08579 2.91699 4.5V17C2.91699 17.4142 3.25278 17.75 3.66699 17.75H9.50033C9.96445 17.75 10.4096 17.9344 10.7378 18.2626C11.066 18.5908 11.2503 19.0359 11.2503 19.5C11.2503 19.7589 11.3815 19.9871 11.581 20.1219C11.7007 20.2028 11.845 20.25 12.0003 20.25C12.0003 20.25 12.0003 20.25 12.0003 20.25C12.0521 20.25 12.1027 20.2448 12.1515 20.2348C12.2979 20.2048 12.4289 20.1321 12.5307 20.0303C12.6664 19.8946 12.7503 19.7071 12.7503 19.5C12.7503 19.0359 12.9347 18.5908 13.2629 18.2626C13.5911 17.9344 14.0362 17.75 14.5003 17.75H20.3337C20.7479 17.75 21.0837 17.4142 21.0837 17V4.5C21.0837 4.08579 20.7479 3.75 20.3337 3.75H15.3337C14.2507 3.75 13.2121 4.18021 12.4463 4.94598C12.2819 5.11043 12.1329 5.28747 12.0003 5.47482C11.8678 5.28747 11.7188 5.11043 11.5543 4.94598C10.7886 4.18021 9.74996 3.75 8.66699 3.75H3.66699ZM11.2503 7.83333V16.7614C10.7318 16.43 10.1253 16.25 9.50033 16.25H4.41699V5.25H8.66699C9.35213 5.25 10.0092 5.52217 10.4937 6.00664C10.9782 6.49111 11.2503 7.14819 11.2503 7.83333ZM14.5003 16.25C13.8753 16.25 13.2689 16.43 12.7503 16.7614V7.83333C12.7503 7.14819 13.0225 6.49111 13.507 6.00664C13.9915 5.52217 14.6485 5.25 15.3337 5.25H19.5837V16.25H14.5003Z" fill="#121212"/>
</svg>
