<svg width="24" height="24" viewBox="0 0 24 24" fill="none" xmlns="http://www.w3.org/2000/svg">
<path d="M7 16C4.79086 16 3 14.2091 3 12C3 9.95985 4.52736 8.27643 6.50099 8.03082C6.77502 7.99672 6.99737 7.77549 7.02462 7.5007C7.27516 4.9737 9.40709 3 12 3C14.5929 3 16.7248 4.9737 16.9754 7.5007C17.0026 7.7755 17.225 7.99672 17.499 8.03082C19.4726 8.27643 21 9.95985 21 12C21 14.2091 19.2091 16 17 16M7 16H8M7 16L7 19.5C7 19.7761 7.22386 20 7.5 20L16.5 20C16.7761 20 17 19.7761 17 19.5L17 16M17 16H16" stroke="#121212" stroke-width="1.5" stroke-linecap="round"/>
</svg>
