<svg width="20" height="18" viewBox="0 0 20 18" fill="none" xmlns="http://www.w3.org/2000/svg">
<path d="M4.39683 12C6.25864 13.8314 8.55394 15.8797 9.52489 16.7368C9.68824 16.881 9.76992 16.9531 9.86519 16.9815C9.94834 17.0062 10.0393 17.0062 10.1225 16.9815C10.2178 16.9531 10.2994 16.881 10.4628 16.7368C11.4337 15.8797 13.729 13.8314 15.5908 12C16.5288 11.0774 17.3567 10.2097 17.8499 9.57714C18.231 9.08828 18.5172 8.55495 18.7087 8H11.309C11.1196 8 10.9465 8.107 10.8618 8.27639L9.48212 11.0358C9.29175 11.4165 8.74302 11.4004 8.57533 11.0091L6.3636 5.84839C6.20719 5.48343 5.70825 5.43762 5.488 5.768L4.14843 7.77735C4.0557 7.91645 3.89958 8 3.73241 8H1.28242C1.06092 7.35062 0.970398 6.67199 1.00843 6C1.08859 4.58373 1.73975 3.19689 2.93923 2.17528C5.19377 0.255042 8.19442 0.819134 9.99384 2.91615C11.7933 0.819134 14.7551 0.275241 17.0484 2.17528C17.68 2.69854 18.1588 3.32273 18.484 4" stroke="#121212" stroke-width="1.5" stroke-linecap="round" stroke-linejoin="round"/>
</svg>
