<svg width="24" height="24" viewBox="0 0 24 24" fill="none" xmlns="http://www.w3.org/2000/svg">
<path fill-rule="evenodd" clip-rule="evenodd" d="M19.9848 3.92774C20.153 4.07024 20.25 4.27954 20.25 4.50001V15.3333C20.25 15.3442 20.2498 15.3549 20.2493 15.3657C20.2498 15.3881 20.25 15.4105 20.25 15.433C20.25 17.2279 18.7949 18.683 17 18.683C15.2051 18.683 13.75 17.2279 13.75 15.433C13.75 13.6381 15.2051 12.183 17 12.183C17.6443 12.183 18.2449 12.3705 18.75 12.6939V5.38535L10.25 6.80202V17.0006C10.2497 18.7952 8.79472 20.25 7 20.25C5.20507 20.25 3.75 18.7949 3.75 17C3.75 15.2051 5.20507 13.75 7 13.75C7.64432 13.75 8.24485 13.9375 8.75 14.2609V6.16667C8.75 5.80004 9.01506 5.48715 9.3767 5.42688L19.3767 3.76021C19.5942 3.72397 19.8166 3.78524 19.9848 3.92774ZM7 15.25C7.9665 15.25 8.75 16.0335 8.75 17C8.75 17.9665 7.9665 18.75 7 18.75C6.0335 18.75 5.25 17.9665 5.25 17C5.25 16.0335 6.0335 15.25 7 15.25ZM15.25 15.433C15.25 14.4665 16.0335 13.683 17 13.683C17.9665 13.683 18.75 14.4665 18.75 15.433C18.75 16.3995 17.9665 17.183 17 17.183C16.0335 17.183 15.25 16.3995 15.25 15.433Z" fill="#121212"/>
</svg>
