<svg width="24" height="24" viewBox="0 0 24 24" fill="none" xmlns="http://www.w3.org/2000/svg">
<path fill-rule="evenodd" clip-rule="evenodd" d="M9.76675 8.70603C10.0732 8.21015 10.25 7.62573 10.25 7C10.25 5.20507 8.79493 3.75 7 3.75C5.20507 3.75 3.75 5.20507 3.75 7C3.75 8.79493 5.20507 10.25 7 10.25C7.62576 10.25 8.21021 10.0732 8.7061 9.7667L10.9392 11.9998L8.70586 14.2331C8.21002 13.9268 7.62566 13.75 7 13.75C5.20507 13.75 3.75 15.2051 3.75 17C3.75 18.7949 5.20507 20.25 7 20.25C8.79493 20.25 10.25 18.7949 10.25 17C10.25 16.3742 10.0731 15.7897 9.7666 15.2937L12.5183 12.542C12.5224 12.5382 12.5264 12.5342 12.5303 12.5303C12.5343 12.5263 12.5382 12.5223 12.5421 12.5183L19.197 5.86334C19.4899 5.57044 19.4899 5.09557 19.197 4.80268C18.9041 4.50978 18.4292 4.50978 18.1363 4.80268L11.9999 10.9391L9.76675 8.70603ZM7 5.25C6.0335 5.25 5.25 6.0335 5.25 7C5.25 7.9665 6.0335 8.75 7 8.75C7.46839 8.75 7.89381 8.56598 8.20789 8.2663C8.21704 8.25609 8.22652 8.24608 8.23633 8.23627C8.24614 8.22647 8.25614 8.217 8.26634 8.20785C8.566 7.89377 8.75 7.46837 8.75 7C8.75 6.0335 7.9665 5.25 7 5.25ZM7 15.25C6.0335 15.25 5.25 16.0335 5.25 17C5.25 17.9665 6.0335 18.75 7 18.75C7.9665 18.75 8.75 17.9665 8.75 17C8.75 16.5302 8.56489 16.1037 8.26363 15.7893C8.25437 15.7809 8.24527 15.7723 8.23633 15.7633C8.22743 15.7544 8.2188 15.7454 8.21044 15.7361C7.89611 15.435 7.46966 15.25 7 15.25Z" fill="#121212"/>
<path d="M13.5275 13.5375C13.8201 13.2444 14.295 13.2439 14.5881 13.5366L19.1965 18.1366C19.4896 18.4292 19.4901 18.9041 19.1974 19.1972C18.9048 19.4904 18.4299 19.4908 18.1368 19.1982L13.5284 14.5982C13.2353 14.3056 13.2349 13.8307 13.5275 13.5375Z" fill="#121212"/>
</svg>
