<svg width="24" height="24" viewBox="0 0 24 24" fill="none" xmlns="http://www.w3.org/2000/svg">
<path d="M7.83374 7.08301C7.41953 7.08301 7.08374 7.41879 7.08374 7.83301C7.08374 8.24722 7.41953 8.58301 7.83374 8.58301H7.84207C8.25629 8.58301 8.59207 8.24722 8.59207 7.83301C8.59207 7.41879 8.25629 7.08301 7.84207 7.08301H7.83374Z" fill="#121212"/>
<path fill-rule="evenodd" clip-rule="evenodd" d="M3.66699 2.91699C3.25278 2.91699 2.91699 3.25278 2.91699 3.66699V12.0003C2.91699 12.1994 2.99613 12.3903 3.13697 12.531L10.2947 19.6804C10.5191 19.9051 10.7857 20.0833 11.0791 20.2049C11.3724 20.3265 11.6869 20.3891 12.0045 20.3891C12.3221 20.3891 12.6366 20.3265 12.9299 20.2049C13.2233 20.0833 13.4898 19.9051 13.7143 19.6804L19.689 13.7057L19.6906 13.7041C20.1407 13.2513 20.3933 12.6388 20.3933 12.0003C20.3933 11.3619 20.1407 10.7494 19.6906 10.2966L19.689 10.295L12.5307 3.13666C12.39 2.99601 12.1992 2.91699 12.0003 2.91699H3.66699ZM4.41699 11.6894V4.41699H11.6897L18.6268 11.3541L18.6275 11.3548C18.7978 11.5265 18.8933 11.7585 18.8933 12.0003C18.8933 12.2421 18.7978 12.4741 18.6275 12.6458L18.6268 12.6466L12.653 18.6203C12.5679 18.7055 12.4668 18.7731 12.3555 18.8193C12.2442 18.8654 12.125 18.8891 12.0045 18.8891C11.884 18.8891 11.7647 18.8654 11.6535 18.8193C11.5422 18.7731 11.4411 18.7055 11.356 18.6203L4.41699 11.6894Z" fill="#121212"/>
</svg>
