<svg width="131" height="26" viewBox="0 0 131 26" fill="none" xmlns="http://www.w3.org/2000/svg">
<path d="M5.03027 6.11719C7.22168 6.11719 8.78223 7.3291 8.79883 9.13867C8.78223 10.6245 7.66162 11.7451 5.99316 12.0605V13.2725C7.23828 13.2061 8.4917 13.0898 9.66211 12.9238L9.81152 14.2686C6.69043 14.833 3.2041 14.8828 0.664062 14.8828L0.464844 13.4053C1.54395 13.4136 2.80566 13.4053 4.13379 13.3555V12.0605C2.41553 11.7783 1.26172 10.6494 1.27832 9.13867C1.26172 7.3291 2.82227 6.11719 5.03027 6.11719ZM5.03027 7.52832C3.83496 7.52832 2.98828 8.12598 3.00488 9.13867C2.98828 10.1182 3.83496 10.7324 5.03027 10.749C6.22559 10.7324 7.03906 10.1182 7.05566 9.13867C7.03906 8.12598 6.22559 7.52832 5.03027 7.52832ZM12.3848 5.48633V10.334H14.4102V11.8613H12.3848V16.9414H10.542V5.48633H12.3848ZM12.916 18.668V20.1621H2.52344V15.9287H4.36621V18.668H12.916ZM28.0978 5.48633V16.4434H26.255V10.9482H23.5988V9.4541H26.255V5.48633H28.0978ZM28.4796 18.6846V20.1787H18.2531V15.4805H20.0959V18.6846H28.4796ZM21.0421 8.47461C21.0421 10.2842 22.2541 12.1436 24.5783 12.9072L23.6486 14.3848C21.9718 13.812 20.7848 12.6748 20.1291 11.2471C19.465 12.8325 18.2116 14.0859 16.4435 14.7002L15.4972 13.2061C17.8879 12.4258 19.1662 10.4502 19.1662 8.45801V8.05957H16.0451V6.56543H24.1466V8.05957H21.0421V8.47461ZM47.5044 5.46973V13.2227H45.6616V11.5957H42.6401V12.7412H35.6177V6.13379H37.4604V8.02637H40.8139V6.13379H42.6401V7.46191H45.6616V5.46973H47.5044ZM47.5044 13.8369V17.6885H39.4692V18.834H47.9858V20.2949H37.6264V16.3271H45.6616V15.2812H37.6098V13.8369H47.5044ZM37.4604 11.2803H40.8139V9.4375H37.4604V11.2803ZM42.6401 10.1846H45.6616V8.85645H42.6401V10.1846ZM63.6823 17.207V18.7344H49.9694V17.207H55.8795V14.7666H51.5963V9.85254H60.2291V7.99316H51.5631V6.49902H62.0553V11.3135H53.4391V13.2559H62.4039V14.7666H57.7057V17.207H63.6823ZM77.951 5.46973V20.4775H76.1746V5.46973H77.951ZM74.9129 5.73535V19.7471H73.1697V15.0156H71.2107C70.6546 16.4932 69.6585 17.3315 68.3885 17.3232C66.4295 17.3398 65.1512 15.2646 65.1512 11.9609C65.1512 8.65723 66.4295 6.61523 68.3885 6.61523C69.6585 6.61523 70.6463 7.44531 71.2107 8.90625H73.1697V5.73535H74.9129ZM68.3885 8.3584C67.409 8.3418 66.8279 9.62012 66.8445 11.9609C66.8279 14.3018 67.409 15.5801 68.3885 15.5635C69.3846 15.5801 69.9988 14.3018 69.9988 11.9609C69.9988 9.62012 69.3846 8.3418 68.3885 8.3584ZM71.576 10.4004C71.6507 10.8818 71.6922 11.4048 71.6922 11.9609C71.6922 12.5088 71.6507 13.0234 71.5926 13.5049H73.1697V10.4004H71.576ZM93.747 17.1406V18.6514H80.0341V17.1406H83.205V13.3389C82.0097 12.6582 81.2876 11.5874 81.2959 10.251C81.2793 7.86035 83.6367 6.2832 86.8574 6.2832C90.0947 6.2832 92.4521 7.86035 92.4521 10.251C92.4521 11.5625 91.7548 12.6167 90.5927 13.3057V17.1406H93.747ZM86.8574 7.74414C84.6162 7.74414 83.0888 8.69043 83.1054 10.251C83.0888 11.7949 84.6162 12.7578 86.8574 12.7578C89.0986 12.7578 90.6425 11.7949 90.6425 10.251C90.6425 8.69043 89.0986 7.74414 86.8574 7.74414ZM85.0312 17.1406H88.7168V14.0029C88.144 14.1357 87.5214 14.2021 86.8574 14.2021C86.2099 14.2021 85.5957 14.1357 85.0312 14.0195V17.1406Z" fill="#121212"/>
<g clip-path="url(#clip0_609_3328)">
<path d="M113 8L117 9" stroke="#121212" stroke-width="1.5" stroke-linecap="round"/>
<path d="M125 8L121 9" stroke="#121212" stroke-width="1.5" stroke-linecap="round"/>
<path d="M115.312 10.3125H115.687M115.312 10.6875H115.687M116 10.5C116 10.7761 115.776 11 115.5 11C115.224 11 115 10.7761 115 10.5C115 10.2239 115.224 10 115.5 10C115.776 10 116 10.2239 116 10.5Z" stroke="#121212" stroke-width="1.5" stroke-linecap="round"/>
<path d="M122.312 10.3125H122.687M122.312 10.6875H122.687M123 10.5C123 10.7761 122.776 11 122.5 11C122.224 11 122 10.7761 122 10.5C122 10.2239 122.224 10 122.5 10C122.776 10 123 10.2239 123 10.5Z" stroke="#121212" stroke-width="1.5" stroke-linecap="round"/>
<path d="M114 19C114.417 18 116 16 119 16C122 16 123.583 18 124 19" stroke="#121212" stroke-width="1.5" stroke-linecap="round"/>
<path d="M119 24C125.075 24 130 19.0751 130 13C130 6.92487 125.075 2 119 2C112.925 2 108 6.92487 108 13C108 19.0751 112.925 24 119 24Z" stroke="#121212" stroke-width="1.5" stroke-linecap="round"/>
</g>
<defs>
<clipPath id="clip0_609_3328">
<rect width="24" height="24" fill="white" transform="translate(107 1)"/>
</clipPath>
</defs>
</svg>
