<svg width="116" height="26" viewBox="0 0 116 26" fill="none" xmlns="http://www.w3.org/2000/svg">
<path d="M5.03027 6.11719C7.22168 6.11719 8.78223 7.3291 8.79883 9.13867C8.78223 10.6245 7.66162 11.7451 5.99316 12.0605V13.2725C7.23828 13.2061 8.4917 13.0898 9.66211 12.9238L9.81152 14.2686C6.69043 14.833 3.2041 14.8828 0.664062 14.8828L0.464844 13.4053C1.54395 13.4136 2.80566 13.4053 4.13379 13.3555V12.0605C2.41553 11.7783 1.26172 10.6494 1.27832 9.13867C1.26172 7.3291 2.82227 6.11719 5.03027 6.11719ZM5.03027 7.52832C3.83496 7.52832 2.98828 8.12598 3.00488 9.13867C2.98828 10.1182 3.83496 10.7324 5.03027 10.749C6.22559 10.7324 7.03906 10.1182 7.05566 9.13867C7.03906 8.12598 6.22559 7.52832 5.03027 7.52832ZM12.3848 5.48633V10.334H14.4102V11.8613H12.3848V16.9414H10.542V5.48633H12.3848ZM12.916 18.668V20.1621H2.52344V15.9287H4.36621V18.668H12.916ZM28.0978 5.48633V16.4434H26.255V10.9482H23.5988V9.4541H26.255V5.48633H28.0978ZM28.4796 18.6846V20.1787H18.2531V15.4805H20.0959V18.6846H28.4796ZM21.0421 8.47461C21.0421 10.2842 22.2541 12.1436 24.5783 12.9072L23.6486 14.3848C21.9718 13.812 20.7848 12.6748 20.1291 11.2471C19.465 12.8325 18.2116 14.0859 16.4435 14.7002L15.4972 13.2061C17.8879 12.4258 19.1662 10.4502 19.1662 8.45801V8.05957H16.0451V6.56543H24.1466V8.05957H21.0421V8.47461ZM42.6733 9.93555V11.4463H48.6333V12.9404H34.9204V11.4463H40.8471V9.93555H42.6733ZM47.3882 5.88477V7.2959H43.0884C43.437 8.3667 45.2134 9.27148 47.9692 9.4375L47.3882 10.8154C44.6074 10.5996 42.5571 9.65332 41.7768 8.22559C40.9883 9.65332 38.9297 10.5996 36.1655 10.8154L35.5679 9.4375C38.2739 9.27979 40.0669 8.3584 40.4487 7.2959H36.1821V5.88477H47.3882ZM47.3384 14.6172V16.0117H36.1821V14.6172H40.8305V13.4053H42.6899V14.6172H47.3384ZM41.7436 16.5596C44.6489 16.5596 46.3423 17.2402 46.3423 18.5352C46.3423 19.8467 44.6489 20.5273 41.7436 20.5273C38.8218 20.5273 37.1782 19.8467 37.1782 18.5352C37.1782 17.2402 38.8218 16.5596 41.7436 16.5596ZM41.7436 17.8047C40.0005 17.8047 39.0708 18.0205 39.0708 18.5352C39.0708 19.0498 40.0005 19.2988 41.7436 19.2988C43.52 19.2988 44.4165 19.0498 44.4331 18.5352C44.4165 18.0205 43.52 17.8047 41.7436 17.8047ZM54.0036 6.56543C56.2614 6.56543 57.8883 8.62402 57.9049 11.8613C57.8883 15.1318 56.2614 17.1738 54.0036 17.1738C51.7291 17.1738 50.0856 15.1318 50.1022 11.8613C50.0856 8.62402 51.7291 6.56543 54.0036 6.56543ZM54.0036 8.22559C52.7418 8.22559 51.8786 9.57031 51.8786 11.8613C51.8786 14.1689 52.7418 15.5137 54.0036 15.5137C55.2819 15.5137 56.1286 14.1689 56.1286 11.8613C56.1286 9.57031 55.2819 8.22559 54.0036 8.22559ZM61.7233 5.46973V11.2305H64.0309V12.791H61.7233V20.4775H59.8805V5.46973H61.7233ZM78.7146 17.1406V18.6514H65.0018V17.1406H68.1727V13.3389C66.9773 12.6582 66.2552 11.5874 66.2635 10.251C66.2469 7.86035 68.6043 6.2832 71.825 6.2832C75.0623 6.2832 77.4197 7.86035 77.4197 10.251C77.4197 11.5625 76.7225 12.6167 75.5603 13.3057V17.1406H78.7146ZM71.825 7.74414C69.5838 7.74414 68.0564 8.69043 68.073 10.251C68.0564 11.7949 69.5838 12.7578 71.825 12.7578C74.0662 12.7578 75.6102 11.7949 75.6102 10.251C75.6102 8.69043 74.0662 7.74414 71.825 7.74414ZM69.9988 17.1406H73.6844V14.0029C73.1116 14.1357 72.4891 14.2021 71.825 14.2021C71.1775 14.2021 70.5633 14.1357 69.9988 14.0195V17.1406Z" fill="#121212"/>
<g clip-path="url(#clip0_609_3395)">
<path d="M104 19C101.268 19 100.13 17.6004 99.5499 16.3945C99.2407 15.7514 99.7864 15 100.5 15H107.5C108.214 15 108.759 15.7514 108.45 16.3945C107.87 17.6004 106.732 19 104 19Z" stroke="#121212" stroke-width="1.5" stroke-linecap="round"/>
<path d="M99 8L101.106 9.05279C101.474 9.23705 101.474 9.76295 101.106 9.94721L99 11" stroke="#121212" stroke-width="1.5" stroke-linecap="round"/>
<path d="M109 8L106.894 9.05279C106.526 9.23705 106.526 9.76295 106.894 9.94721L109 11" stroke="#121212" stroke-width="1.5" stroke-linecap="round"/>
<path d="M104 24C110.075 24 115 19.0751 115 13C115 6.92487 110.075 2 104 2C97.9249 2 93 6.92487 93 13C93 19.0751 97.9249 24 104 24Z" stroke="#121212" stroke-width="1.5" stroke-linecap="round"/>
</g>
<defs>
<clipPath id="clip0_609_3395">
<rect width="24" height="24" fill="white" transform="translate(92 1)"/>
</clipPath>
</defs>
</svg>
