<svg width="81" height="26" viewBox="0 0 81 26" fill="none" xmlns="http://www.w3.org/2000/svg">
<path d="M8.23438 9.93555V11.4463H14.1943V12.9404H0.481445V11.4463H6.4082V9.93555H8.23438ZM12.9492 5.88477V7.2959H8.64941C8.99805 8.3667 10.7744 9.27148 13.5303 9.4375L12.9492 10.8154C10.1685 10.5996 8.11816 9.65332 7.33789 8.22559C6.54932 9.65332 4.49072 10.5996 1.72656 10.8154L1.12891 9.4375C3.83496 9.27979 5.62793 8.3584 6.00977 7.2959H1.74316V5.88477H12.9492ZM12.8994 14.6172V16.0117H1.74316V14.6172H6.3916V13.4053H8.25098V14.6172H12.8994ZM7.30469 16.5596C10.21 16.5596 11.9033 17.2402 11.9033 18.5352C11.9033 19.8467 10.21 20.5273 7.30469 20.5273C4.38281 20.5273 2.73926 19.8467 2.73926 18.5352C2.73926 17.2402 4.38281 16.5596 7.30469 16.5596ZM7.30469 17.8047C5.56152 17.8047 4.63184 18.0205 4.63184 18.5352C4.63184 19.0498 5.56152 19.2988 7.30469 19.2988C9.08105 19.2988 9.97754 19.0498 9.99414 18.5352C9.97754 18.0205 9.08105 17.8047 7.30469 17.8047ZM19.5646 6.56543C21.8224 6.56543 23.4494 8.62402 23.466 11.8613C23.4494 15.1318 21.8224 17.1738 19.5646 17.1738C17.2902 17.1738 15.6466 15.1318 15.6632 11.8613C15.6466 8.62402 17.2902 6.56543 19.5646 6.56543ZM19.5646 8.22559C18.3029 8.22559 17.4396 9.57031 17.4396 11.8613C17.4396 14.1689 18.3029 15.5137 19.5646 15.5137C20.8429 15.5137 21.6896 14.1689 21.6896 11.8613C21.6896 9.57031 20.8429 8.22559 19.5646 8.22559ZM27.2843 5.46973V11.2305H29.592V12.791H27.2843V20.4775H25.4416V5.46973H27.2843ZM44.2757 17.1406V18.6514H30.5628V17.1406H33.7337V13.3389C32.5384 12.6582 31.8162 11.5874 31.8245 10.251C31.8079 7.86035 34.1654 6.2832 37.3861 6.2832C40.6234 6.2832 42.9808 7.86035 42.9808 10.251C42.9808 11.5625 42.2835 12.6167 41.1214 13.3057V17.1406H44.2757ZM37.3861 7.74414C35.1448 7.74414 33.6175 8.69043 33.6341 10.251C33.6175 11.7949 35.1448 12.7578 37.3861 12.7578C39.6273 12.7578 41.1712 11.7949 41.1712 10.251C41.1712 8.69043 39.6273 7.74414 37.3861 7.74414ZM35.5599 17.1406H39.2454V14.0029C38.6727 14.1357 38.0501 14.2021 37.3861 14.2021C36.7386 14.2021 36.1243 14.1357 35.5599 14.0195V17.1406Z" fill="#121212"/>
<g clip-path="url(#clip0_970_19)">
<path d="M65.3124 9.31247H65.6874M65.3124 9.68747H65.6874M72.3124 9.31247H72.6874M72.3124 9.68747H72.6874M64 16C64.4167 17 66 19 69 19C72 19 73.5833 17 74 16M66 9.5C66 9.77614 65.7761 10 65.5 10C65.2239 10 65 9.77614 65 9.5C65 9.22386 65.2239 9 65.5 9C65.7761 9 66 9.22386 66 9.5ZM73 9.5C73 9.77614 72.7761 10 72.5 10C72.2239 10 72 9.77614 72 9.5C72 9.22386 72.2239 9 72.5 9C72.7761 9 73 9.22386 73 9.5ZM80 13C80 19.0751 75.0751 24 69 24C62.9249 24 58 19.0751 58 13C58 6.92487 62.9249 2 69 2C75.0751 2 80 6.92487 80 13Z" stroke="#121212" stroke-width="1.5" stroke-linecap="round"/>
</g>
<defs>
<clipPath id="clip0_970_19">
<rect width="24" height="24" fill="white" transform="translate(57 1)"/>
</clipPath>
</defs>
</svg>
