<svg width="111" height="26" viewBox="0 0 111 26" fill="none" xmlns="http://www.w3.org/2000/svg">
<path d="M14.2109 17.1572V18.668H0.498047V17.1572H6.4082V14.2354H2.00879V6.46582H3.85156V8.92285H10.8076V6.46582H12.6504V14.2354H8.23438V17.1572H14.2109ZM3.85156 12.7412H10.8076V10.4004H3.85156V12.7412ZM29.2101 13.2725V14.7334H15.4972V13.2725H21.424V12.1602H17.257V5.86816H27.5666V7.2959H19.0998V8.3252H27.2013V9.68652H19.0998V10.749H27.6828V12.1602H23.2668V13.2725H29.2101ZM22.3537 15.5635C25.6574 15.5635 27.5334 16.4434 27.55 18.0039C27.5334 19.6143 25.6574 20.4609 22.3537 20.4609C19.0002 20.4609 17.1242 19.6143 17.1242 18.0039C17.1242 16.4434 19.0002 15.5635 22.3537 15.5635ZM22.3537 16.9414C20.0959 16.9414 18.967 17.29 18.967 18.0039C18.967 18.7344 20.0959 19.083 22.3537 19.083C24.5783 19.083 25.6906 18.7344 25.7072 18.0039C25.6906 17.29 24.5783 16.9414 22.3537 16.9414ZM43.0472 5.46973V20.4941H41.1878V5.46973H43.0472ZM34.9622 6.56543C37.22 6.56543 38.8636 8.62402 38.8802 11.8613C38.8636 15.1318 37.22 17.1738 34.9622 17.1738C32.6878 17.1738 31.0443 15.1318 31.0443 11.8613C31.0443 8.62402 32.6878 6.56543 34.9622 6.56543ZM34.9622 8.22559C33.6839 8.22559 32.8206 9.57031 32.8206 11.8613C32.8206 14.1689 33.6839 15.5137 34.9622 15.5137C36.2239 15.5137 37.0872 14.1689 37.0872 11.8613C37.0872 9.57031 36.2239 8.22559 34.9622 8.22559ZM58.5444 5.46973V20.4775H56.768V5.46973H58.5444ZM55.4565 5.73535V19.7471H53.6968V12.6084H52.269C52.0947 15.5303 50.8413 17.3398 48.9819 17.3232C47.0229 17.3398 45.7446 15.2646 45.7446 11.9609C45.7446 8.65723 47.0229 6.61523 48.9819 6.61523C50.7998 6.61523 52.0366 8.30859 52.2524 11.1143H53.6968V5.73535H55.4565ZM48.9819 8.3584C48.0356 8.3418 47.438 9.62012 47.4546 11.9609C47.438 14.3018 48.0356 15.5801 48.9819 15.5635C49.978 15.5801 50.5757 14.3018 50.5757 11.9609C50.5757 9.62012 49.978 8.3418 48.9819 8.3584ZM74.3405 17.1406V18.6514H60.6276V17.1406H63.7985V13.3389C62.6032 12.6582 61.881 11.5874 61.8893 10.251C61.8727 7.86035 64.2301 6.2832 67.4508 6.2832C70.6881 6.2832 73.0455 7.86035 73.0455 10.251C73.0455 11.5625 72.3483 12.6167 71.1862 13.3057V17.1406H74.3405ZM67.4508 7.74414C65.2096 7.74414 63.6823 8.69043 63.6989 10.251C63.6823 11.7949 65.2096 12.7578 67.4508 12.7578C69.692 12.7578 71.236 11.7949 71.236 10.251C71.236 8.69043 69.692 7.74414 67.4508 7.74414ZM65.6246 17.1406H69.3102V14.0029C68.7374 14.1357 68.1149 14.2021 67.4508 14.2021C66.8034 14.2021 66.1891 14.1357 65.6246 14.0195V17.1406Z" fill="#121212"/>
<g clip-path="url(#clip0_970_567)">
<path d="M95.3124 9.31247H95.6874M95.3124 9.68747H95.6874M96 9.5C96 9.77614 95.7761 10 95.5 10C95.2239 10 95 9.77614 95 9.5C95 9.22386 95.2239 9 95.5 9C95.7761 9 96 9.22386 96 9.5Z" stroke="#121212" stroke-width="1.5" stroke-linecap="round"/>
<path d="M102.312 9.31247H102.687M102.312 9.68747H102.687M103 9.5C103 9.77614 102.776 10 102.5 10C102.224 10 102 9.77614 102 9.5C102 9.22386 102.224 9 102.5 9C102.776 9 103 9.22386 103 9.5Z" stroke="#121212" stroke-width="1.5" stroke-linecap="round"/>
<path d="M95 17H103" stroke="#121212" stroke-width="1.5" stroke-linecap="round"/>
<path d="M99 24C105.075 24 110 19.0751 110 13C110 6.92487 105.075 2 99 2C92.9249 2 88 6.92487 88 13C88 19.0751 92.9249 24 99 24Z" stroke="#121212" stroke-width="1.5" stroke-linecap="round"/>
</g>
<defs>
<clipPath id="clip0_970_567">
<rect width="24" height="24" fill="white" transform="translate(87 1)"/>
</clipPath>
</defs>
</svg>
