<svg width="32" height="32" viewBox="0 0 32 32" fill="none" xmlns="http://www.w3.org/2000/svg">
<path d="M23.3737 10.0404C23.7642 9.64983 23.7642 9.01667 23.3737 8.62615C22.9832 8.23562 22.35 8.23562 21.9595 8.62615L15.9999 14.5857L10.0404 8.62615C9.64983 8.23562 9.01667 8.23562 8.62615 8.62615C8.23562 9.01667 8.23562 9.64983 8.62615 10.0404L14.5857 15.9999L8.62615 21.9595C8.23562 22.35 8.23562 22.9832 8.62615 23.3737C9.01667 23.7642 9.64983 23.7642 10.0404 23.3737L15.9999 17.4141L21.9595 23.3737C22.35 23.7642 22.9832 23.7642 23.3737 23.3737C23.7642 22.9832 23.7642 22.35 23.3737 21.9595L17.4141 15.9999L23.3737 10.0404Z" fill="#121212"/>
</svg>
