<svg width="30" height="30" viewBox="0 0 30 30" fill="none" xmlns="http://www.w3.org/2000/svg">
<path fill-rule="evenodd" clip-rule="evenodd" d="M9.89597 5.72876V5.62541C9.89597 4.53234 10.7821 3.64624 11.8751 3.64624H18.1251C19.2182 3.64624 20.1043 4.53234 20.1043 5.62541V5.72876H21.2501C22.0513 5.72876 22.8196 6.04703 23.3861 6.61354C23.9526 7.18006 24.2709 7.94842 24.2709 8.74959V23.3329C24.2709 24.1341 23.9526 24.9025 23.3861 25.469C22.8196 26.0355 22.0513 26.3538 21.2501 26.3538H8.75008C7.94891 26.3538 7.18055 26.0355 6.61403 25.469C6.04751 24.9025 5.72925 24.1341 5.72925 23.3329V8.74959C5.72925 7.94842 6.04751 7.18006 6.61403 6.61354C7.18055 6.04702 7.94891 5.72876 8.75008 5.72876H9.89597ZM11.771 5.62541C11.771 5.56788 11.8176 5.52124 11.8751 5.52124H18.1251C18.1827 5.52124 18.2293 5.56788 18.2293 5.62541V6.65642C18.2293 6.6597 18.2292 6.66298 18.2292 6.66626C18.2292 6.66954 18.2293 6.67282 18.2293 6.6761V7.70874C18.2293 7.76627 18.1827 7.81291 18.1251 7.81291H11.8751C11.8176 7.81291 11.771 7.76627 11.771 7.70874V5.62541ZM20.1043 7.60376V7.70874C20.1043 8.8018 19.2182 9.68791 18.1251 9.68791H11.8751C10.7821 9.68791 9.89597 8.8018 9.89597 7.70874V7.60376H8.75008C8.44619 7.60376 8.15474 7.72448 7.93985 7.93937C7.72497 8.15425 7.60425 8.4457 7.60425 8.74959V23.3329C7.60425 23.6368 7.72497 23.9283 7.93985 24.1432C8.15474 24.358 8.44619 24.4788 8.75008 24.4788H21.2501C21.554 24.4788 21.8454 24.358 22.0603 24.1432C22.2752 23.9283 22.3959 23.6368 22.3959 23.3329V8.74959C22.3959 8.4457 22.2752 8.15425 22.0603 7.93937C21.8454 7.72448 21.554 7.60376 21.2501 7.60376H20.1043Z" fill="#121212"/>
</svg>
